<svg width="721" height="721" viewBox="0 0 721 721" fill="none" xmlns="http://www.w3.org/2000/svg">
    <g opacity="0.8" filter="url(#filter0_ii)">
        <path d="M7.27564 288.793C46.64 93.9508 236.502 -32.0889 431.344 7.27546C626.186 46.6398 752.226 236.502 712.861 431.344C673.497 626.186 483.635 752.225 288.793 712.861C93.9509 673.497 -32.0887 483.635 7.27564 288.793Z" fill="url(#paint0_linear)"></path>
        <path d="M7.27564 288.793C46.64 93.9508 236.502 -32.0889 431.344 7.27546C626.186 46.6398 752.226 236.502 712.861 431.344C673.497 626.186 483.635 752.225 288.793 712.861C93.9509 673.497 -32.0887 483.635 7.27564 288.793Z" fill="url(#paint1_radial)"></path>
        <path d="M7.27564 288.793C46.64 93.9508 236.502 -32.0889 431.344 7.27546C626.186 46.6398 752.226 236.502 712.861 431.344C673.497 626.186 483.635 752.225 288.793 712.861C93.9509 673.497 -32.0887 483.635 7.27564 288.793Z" fill="url(#paint2_diamond)" style="mix-blend-mode:overlay"></path>
    </g>

        <filter id="filter0_ii" x="-6.80922" y="-6.80947" width="726.869" height="726.869" filterUnits="userSpaceOnUse" color-interpolation-filters="sRGB">
            <feFlood flood-opacity="0" result="BackgroundImageFix"></feFlood>
            <feBlend mode="normal" in="SourceGraphic" in2="BackgroundImageFix" result="shape"></feBlend>
            <feColorMatrix in="SourceAlpha" type="matrix" values="0 0 0 0 0 0 0 0 0 0 0 0 0 0 0 0 0 0 127 0" result="hardAlpha"></feColorMatrix>
            <feOffset></feOffset>
            <feGaussianBlur stdDeviation="41.3212"></feGaussianBlur>
            <feComposite in2="hardAlpha" operator="arithmetic" k2="-1" k3="1"></feComposite>
            <feColorMatrix type="matrix" values="0 0 0 0 1 0 0 0 0 1 0 0 0 0 1 0 0 0 1 0"></feColorMatrix>
            <feBlend mode="overlay" in2="shape" result="effect1_innerShadow"></feBlend>
            <feColorMatrix in="SourceAlpha" type="matrix" values="0 0 0 0 0 0 0 0 0 0 0 0 0 0 0 0 0 0 127 0" result="hardAlpha"></feColorMatrix>
            <feOffset dx="-6.88686" dy="-6.88686"></feOffset>
            <feGaussianBlur stdDeviation="13.7737"></feGaussianBlur>
            <feComposite in2="hardAlpha" operator="arithmetic" k2="-1" k3="1"></feComposite>
            <feColorMatrix type="matrix" values="0 0 0 0 1 0 0 0 0 1 0 0 0 0 1 0 0 0 1 0"></feColorMatrix>
            <feBlend mode="soft-light" in2="effect1_innerShadow" result="effect2_innerShadow"></feBlend>
        </filter>
        <linearGradient id="paint0_linear" x1="180.094" y1="705.054" x2="323.164" y2="10.8279" gradientUnits="userSpaceOnUse">
            <stop stop-color="#4392CB" stop-opacity="0.84"></stop>
            <stop offset="1" stop-color="#20E291"></stop>
        </linearGradient>
        <radialGradient id="paint1_radial" cx="0" cy="0" r="1" gradientUnits="userSpaceOnUse" gradientTransform="translate(687.734 560.004) rotate(-148.859) scale(1381.41 3790.56)">
            <stop offset="0.0437111" stop-color="#103F80" stop-opacity="0.93"></stop>
            <stop offset="0.508439" stop-color="#0A1E64" stop-opacity="0"></stop>
        </radialGradient>
        <radialGradient id="paint2_diamond" cx="0" cy="0" r="1" gradientUnits="userSpaceOnUse" gradientTransform="translate(279.47 227.099) rotate(-31.1722) scale(464.56 499.481)">
            <stop offset="0.0850989" stop-color="#CB5725" stop-opacity="0.46"></stop>
            <stop offset="1" stop-color="#E0A952" stop-opacity="0.28"></stop>
        </radialGradient>

</svg>