<svg width="141" height="31" viewBox="0 0 141 31" fill="none" xmlns="http://www.w3.org/2000/svg">
<circle cx="5.09805" cy="15.545" r="5.09805" fill="#079270"/>
<circle cx="5.09805" cy="25.7495" r="5.09805" fill="#046A51"/>
<circle cx="15.3014" cy="15.545" r="5.09805" fill="#0ABE98"/>
<circle cx="15.3014" cy="25.7495" r="5.09805" fill="#079270"/>
<circle cx="5.09805" cy="5.34134" r="5.09805" fill="#0ABE98"/>
<circle cx="15.3014" cy="5.34" r="5.09805" fill="#28F3C8"/>
<circle cx="25.5063" cy="5.34" r="5.09805" fill="#7DFFE0"/>
<circle cx="25.5063" cy="15.545" r="5.09805" fill="#28F3C8"/>
<circle cx="25.5063" cy="25.7495" r="5.09805" fill="#0ABE98"/>
<path d="M37.4252 28.0043H39.9973V28.5856H36.7058V23.1948H37.4252V28.0043Z" fill="black"/>
<path d="M41.6457 28.5856H40.9561V24.5795H41.6457V28.5856ZM40.9002 23.5169C40.9002 23.4058 40.9337 23.312 41.0008 23.2355C41.0704 23.159 41.1723 23.1207 41.3065 23.1207C41.4407 23.1207 41.5426 23.159 41.6122 23.2355C41.6817 23.312 41.7165 23.4058 41.7165 23.5169C41.7165 23.628 41.6817 23.7205 41.6122 23.7946C41.5426 23.8686 41.4407 23.9056 41.3065 23.9056C41.1723 23.9056 41.0704 23.8686 41.0008 23.7946C40.9337 23.7205 40.9002 23.628 40.9002 23.5169Z" fill="black"/>
<path d="M42.7759 26.5493C42.7759 25.9198 42.9213 25.4224 43.2121 25.0571C43.5028 24.6893 43.893 24.5055 44.3826 24.5055C44.8597 24.5055 45.2362 24.6647 45.512 24.9831L45.5419 24.5795H46.1756V30.1259H45.4859V28.2154C45.2076 28.5116 44.8373 28.6597 44.3751 28.6597C43.888 28.6597 43.4991 28.4721 43.2083 28.0969C42.9201 27.7193 42.7759 27.2194 42.7759 26.5974V26.5493ZM43.4656 26.627C43.4656 27.0861 43.5625 27.4465 43.7563 27.7081C43.9526 27.9698 44.2161 28.1006 44.5466 28.1006C44.9566 28.1006 45.2697 27.9204 45.4859 27.56V25.5977C45.2673 25.2447 44.9566 25.0682 44.554 25.0682C44.221 25.0682 43.9564 25.2003 43.76 25.4644C43.5637 25.7261 43.4656 26.1136 43.4656 26.627Z" fill="black"/>
<path d="M49.9636 28.1895C49.6952 28.503 49.3013 28.6597 48.7819 28.6597C48.352 28.6597 48.024 28.5363 47.7978 28.2894C47.5742 28.0401 47.4611 27.6724 47.4586 27.1861V24.5795H48.1482V27.1676C48.1482 27.7748 48.3968 28.0784 48.8938 28.0784C49.4206 28.0784 49.771 27.8834 49.945 27.4934V24.5795H50.6346V28.5856H49.9785L49.9636 28.1895Z" fill="black"/>
<path d="M52.6259 28.5856H51.9363V24.5795H52.6259V28.5856ZM51.8804 23.5169C51.8804 23.4058 51.9139 23.312 51.981 23.2355C52.0506 23.159 52.1525 23.1207 52.2867 23.1207C52.4209 23.1207 52.5228 23.159 52.5924 23.2355C52.6619 23.312 52.6967 23.4058 52.6967 23.5169C52.6967 23.628 52.6619 23.7205 52.5924 23.7946C52.5228 23.8686 52.4209 23.9056 52.2867 23.9056C52.1525 23.9056 52.0506 23.8686 51.981 23.7946C51.9139 23.7205 51.8804 23.628 51.8804 23.5169Z" fill="black"/>
<path d="M53.7561 26.5493C53.7561 25.9346 53.9028 25.441 54.196 25.0682C54.4892 24.6931 54.8732 24.5055 55.3478 24.5055C55.82 24.5055 56.194 24.6659 56.4699 24.9868V22.8986H57.1595V28.5856H56.5258L56.4922 28.1561C56.2164 28.4918 55.8324 28.6597 55.3404 28.6597C54.8732 28.6597 54.4917 28.4696 54.196 28.0895C53.9028 27.7094 53.7561 27.2132 53.7561 26.6011V26.5493ZM54.4457 26.627C54.4457 27.0812 54.5402 27.4366 54.7291 27.6933C54.9179 27.95 55.1789 28.0784 55.5119 28.0784C55.9492 28.0784 56.2686 27.8834 56.4699 27.4934V25.6532C56.2636 25.2756 55.9468 25.0868 55.5193 25.0868C55.1813 25.0868 54.9179 25.2163 54.7291 25.4755C54.5402 25.7347 54.4457 26.1185 54.4457 26.627Z" fill="black"/>
<path d="M59.1732 28.5856H58.4836V24.5795H59.1732V28.5856ZM58.4276 23.5169C58.4276 23.4058 58.4612 23.312 58.5283 23.2355C58.5979 23.159 58.6998 23.1207 58.834 23.1207C58.9681 23.1207 59.07 23.159 59.1396 23.2355C59.2092 23.312 59.244 23.4058 59.244 23.5169C59.244 23.628 59.2092 23.7205 59.1396 23.7946C59.07 23.8686 58.9681 23.9056 58.834 23.9056C58.6998 23.9056 58.5979 23.8686 58.5283 23.7946C58.4612 23.7205 58.4276 23.628 58.4276 23.5169Z" fill="black"/>
<path d="M61.4068 23.6094V24.5795H62.1598V25.109H61.4068V27.5934C61.4068 27.7538 61.4403 27.8748 61.5074 27.9562C61.5745 28.0352 61.6888 28.0747 61.8504 28.0747C61.9299 28.0747 62.0392 28.0599 62.1784 28.0303V28.5856C61.997 28.635 61.8206 28.6597 61.6491 28.6597C61.3409 28.6597 61.1086 28.5671 60.952 28.382C60.7954 28.1969 60.7172 27.934 60.7172 27.5934V25.109H59.9828V24.5795H60.7172V23.6094H61.4068Z" fill="black"/>
<path d="M64.4791 27.5823L65.4185 24.5795H66.1566L64.535 29.204C64.284 29.8704 63.8852 30.2036 63.3385 30.2036L63.208 30.1925L62.9508 30.1444V29.589L63.1372 29.6038C63.3708 29.6038 63.5522 29.5569 63.6814 29.4631C63.8131 29.3693 63.9212 29.1978 64.0057 28.9485L64.1585 28.5412L62.7197 24.5795H63.4727L64.4791 27.5823Z" fill="black"/>
<path d="M66.5785 28.2265C66.5785 28.108 66.6133 28.0093 66.6829 27.9303C66.755 27.8513 66.8618 27.8118 67.0035 27.8118C67.1451 27.8118 67.252 27.8513 67.3241 27.9303C67.3986 28.0093 67.4359 28.108 67.4359 28.2265C67.4359 28.34 67.3986 28.4351 67.3241 28.5116C67.252 28.5881 67.1451 28.6264 67.0035 28.6264C66.8618 28.6264 66.755 28.5881 66.6829 28.5116C66.6133 28.4351 66.5785 28.34 66.5785 28.2265Z" fill="black"/>
<path d="M74.561 23.7798H72.8164V28.5856H72.1044V23.7798H70.3636V23.1948H74.561V23.7798Z" fill="black"/>
<path d="M76.7498 28.6597C76.2031 28.6597 75.7583 28.482 75.4153 28.1265C75.0724 27.7686 74.9009 27.291 74.9009 26.6937V26.5678C74.9009 26.1704 74.9767 25.8162 75.1283 25.5051C75.2824 25.1917 75.4961 24.9473 75.7695 24.772C76.0453 24.5943 76.3435 24.5055 76.6641 24.5055C77.1885 24.5055 77.596 24.677 77.8868 25.0201C78.1775 25.3632 78.3229 25.8544 78.3229 26.4937V26.7788H75.5905C75.6005 27.1737 75.716 27.4934 75.9372 27.7378C76.1609 27.9797 76.4442 28.1006 76.7871 28.1006C77.0307 28.1006 77.2369 28.0512 77.4059 27.9525C77.5749 27.8538 77.7228 27.723 77.8495 27.56L78.2707 27.8859C77.9328 28.4018 77.4258 28.6597 76.7498 28.6597ZM76.6641 25.0682C76.3858 25.0682 76.1522 25.1694 75.9633 25.3718C75.7744 25.5718 75.6576 25.8532 75.6129 26.216H77.6333V26.1642C77.6134 25.8162 77.519 25.5471 77.35 25.357C77.181 25.1645 76.9524 25.0682 76.6641 25.0682Z" fill="black"/>
<path d="M80.933 28.1006C81.179 28.1006 81.394 28.0266 81.5779 27.8785C81.7618 27.7304 81.8637 27.5452 81.8836 27.3231H82.5359C82.5235 27.5526 82.444 27.7711 82.2973 27.9784C82.1507 28.1858 81.9544 28.3511 81.7084 28.4746C81.4648 28.598 81.2064 28.6597 80.933 28.6597C80.3838 28.6597 79.9464 28.4783 79.6209 28.1154C79.2978 27.7501 79.1363 27.2515 79.1363 26.6196V26.5048C79.1363 26.1148 79.2084 25.768 79.3525 25.4644C79.4966 25.1608 79.7029 24.9251 79.9713 24.7572C80.2422 24.5894 80.5615 24.5055 80.9293 24.5055C81.3816 24.5055 81.7568 24.64 82.055 24.909C82.3557 25.1781 82.516 25.5274 82.5359 25.9568H81.8836C81.8637 25.6977 81.7643 25.4854 81.5854 25.32C81.4089 25.1522 81.1902 25.0682 80.9293 25.0682C80.5789 25.0682 80.3068 25.1941 80.1129 25.4459C79.9216 25.6952 79.8259 26.0568 79.8259 26.5307V26.6603C79.8259 27.1219 79.9216 27.4774 80.1129 27.7267C80.3043 27.976 80.5777 28.1006 80.933 28.1006Z" fill="black"/>
<path d="M84.1917 25.0645C84.4974 24.6918 84.895 24.5055 85.3846 24.5055C86.237 24.5055 86.6669 24.9831 86.6744 25.9383V28.5856H85.9847V25.9346C85.9823 25.6458 85.9152 25.4323 85.7835 25.2941C85.6542 25.1559 85.4517 25.0868 85.1758 25.0868C84.9522 25.0868 84.7559 25.146 84.5869 25.2645C84.4179 25.383 84.2862 25.5385 84.1917 25.731V28.5856H83.5021V22.8986H84.1917V25.0645Z" fill="black"/>
<path d="M88.5501 24.5795L88.5725 25.0831C88.8806 24.698 89.2832 24.5055 89.7803 24.5055C90.6326 24.5055 91.0626 24.9831 91.07 25.9383V28.5856H90.3804V25.9346C90.3779 25.6458 90.3108 25.4323 90.1791 25.2941C90.0499 25.1559 89.8474 25.0868 89.5715 25.0868C89.3478 25.0868 89.1515 25.146 88.9825 25.2645C88.8135 25.383 88.6818 25.5385 88.5874 25.731V28.5856H87.8978V24.5795H88.5501Z" fill="black"/>
<path d="M92.1182 26.5455C92.1182 26.1531 92.1953 25.8001 92.3494 25.4866C92.5059 25.1731 92.7221 24.9312 92.998 24.7609C93.2763 24.5906 93.5932 24.5055 93.9485 24.5055C94.4977 24.5055 94.9413 24.6943 95.2793 25.0719C95.6198 25.4496 95.79 25.9519 95.79 26.5789V26.627C95.79 27.017 95.7142 27.3675 95.5626 27.6785C95.4135 27.9871 95.1985 28.2277 94.9177 28.4005C94.6394 28.5733 94.3188 28.6597 93.956 28.6597C93.4093 28.6597 92.9657 28.4709 92.6252 28.0932C92.2872 27.7155 92.1182 27.2157 92.1182 26.5937V26.5455ZM92.8116 26.627C92.8116 27.0713 92.9147 27.428 93.121 27.697C93.3297 27.9661 93.6081 28.1006 93.956 28.1006C94.3064 28.1006 94.5847 27.9649 94.791 27.6933C94.9972 27.4193 95.1004 27.0368 95.1004 26.5455C95.1004 26.1062 94.9948 25.7507 94.7835 25.4792C94.5748 25.2052 94.2964 25.0682 93.9485 25.0682C93.6081 25.0682 93.3335 25.2028 93.1247 25.4718C92.916 25.7409 92.8116 26.1259 92.8116 26.627Z" fill="black"/>
<path d="M97.5949 28.5856H96.9053V22.8986H97.5949V28.5856Z" fill="black"/>
<path d="M98.7102 26.5455C98.7102 26.1531 98.7873 25.8001 98.9414 25.4866C99.0979 25.1731 99.3141 24.9312 99.59 24.7609C99.8683 24.5906 100.185 24.5055 100.541 24.5055C101.09 24.5055 101.533 24.6943 101.871 25.0719C102.212 25.4496 102.382 25.9519 102.382 26.5789V26.627C102.382 27.017 102.306 27.3675 102.155 27.6785C102.005 27.9871 101.791 28.2277 101.51 28.4005C101.231 28.5733 100.911 28.6597 100.548 28.6597C100.001 28.6597 99.5577 28.4709 99.2172 28.0932C98.8792 27.7155 98.7102 27.2157 98.7102 26.5937V26.5455ZM99.4036 26.627C99.4036 27.0713 99.5067 27.428 99.713 27.697C99.9217 27.9661 100.2 28.1006 100.548 28.1006C100.898 28.1006 101.177 27.9649 101.383 27.6933C101.589 27.4193 101.692 27.0368 101.692 26.5455C101.692 26.1062 101.587 25.7507 101.376 25.4792C101.167 25.2052 100.888 25.0682 100.541 25.0682C100.2 25.0682 99.9255 25.2028 99.7167 25.4718C99.508 25.7409 99.4036 26.1259 99.4036 26.627Z" fill="black"/>
<path d="M103.274 26.5493C103.274 25.9248 103.419 25.4286 103.71 25.0608C104.001 24.6906 104.386 24.5055 104.865 24.5055C105.357 24.5055 105.741 24.6782 106.017 25.0238L106.051 24.5795H106.681V28.4894C106.681 29.0077 106.525 29.4162 106.215 29.7149C105.907 30.0136 105.492 30.1629 104.97 30.1629C104.679 30.1629 104.394 30.1012 104.116 29.9778C103.838 29.8544 103.625 29.6853 103.479 29.4705L103.837 29.0596C104.132 29.4224 104.494 29.6038 104.921 29.6038C105.257 29.6038 105.518 29.51 105.704 29.3224C105.893 29.1349 105.987 28.8707 105.987 28.5301V28.1858C105.712 28.5017 105.335 28.6597 104.858 28.6597C104.386 28.6597 104.003 28.4709 103.71 28.0932C103.419 27.7155 103.274 27.2009 103.274 26.5493ZM103.967 26.627C103.967 27.0787 104.06 27.4342 104.247 27.6933C104.433 27.95 104.694 28.0784 105.029 28.0784C105.464 28.0784 105.784 27.8822 105.987 27.4897V25.6606C105.776 25.2781 105.459 25.0868 105.037 25.0868C104.701 25.0868 104.439 25.2163 104.25 25.4755C104.061 25.7347 103.967 26.1185 103.967 26.627Z" fill="black"/>
<path d="M109.235 27.5823L110.174 24.5795H110.912L109.291 29.204C109.04 29.8704 108.641 30.2036 108.094 30.2036L107.964 30.1925L107.707 30.1444V29.589L107.893 29.6038C108.127 29.6038 108.308 29.5569 108.437 29.4631C108.569 29.3693 108.677 29.1978 108.761 28.9485L108.914 28.5412L107.475 24.5795H108.228L109.235 27.5823Z" fill="black"/>
<path d="M111.334 28.2265C111.334 28.108 111.369 28.0093 111.439 27.9303C111.511 27.8513 111.618 27.8118 111.759 27.8118C111.901 27.8118 112.008 27.8513 112.08 27.9303C112.154 28.0093 112.192 28.108 112.192 28.2265C112.192 28.34 112.154 28.4351 112.08 28.5116C112.008 28.5881 111.901 28.6264 111.759 28.6264C111.618 28.6264 111.511 28.5881 111.439 28.5116C111.369 28.4351 111.334 28.34 111.334 28.2265Z" fill="black"/>
<path d="M43.4466 17.3321C46.8797 17.3321 49.2487 15.6748 49.2487 12.9763C49.2487 10.979 47.4816 9.49165 45.3192 9.30042V9.10919C46.9354 8.86484 48.4573 7.44123 48.4573 5.82639C48.4573 3.46788 46.3447 2.00178 43.2905 2.00178H36.7058V17.3321H43.4466ZM39.7183 4.13719H42.5883C44.3271 4.13719 45.4782 4.93398 45.4782 6.30447C45.4782 7.70683 44.2603 8.46113 42.2204 8.46113H39.7183V4.13719ZM39.7183 15.1967V10.4053H42.6774C44.8733 10.4053 46.1693 11.2233 46.1693 12.7851C46.1693 14.3574 44.9068 15.1967 42.7889 15.1967H39.7183Z" fill="black"/>
<path d="M50.7373 6.66848H53.5715C53.5715 5.05365 54.5495 3.81847 56.2995 3.81847C57.9826 3.81847 58.9858 4.89149 58.9858 6.28322C58.9858 7.45186 58.4954 8.18491 56.4667 10.1397L50.8934 15.4835V17.3321H62.199V15.0586H54.7947V14.878L58.3868 11.6377C61.1512 9.05607 61.9649 7.81307 61.9649 6.02825C61.9649 3.47851 59.6546 1.61932 56.4555 1.61932C53.1004 1.61932 50.7373 3.76815 50.7373 6.66848Z" fill="black"/>
<path d="M71.5378 17.3321C74.9709 17.3321 77.3399 15.6748 77.3399 12.9763C77.3399 10.979 75.5728 9.49165 73.4104 9.30042V9.10919C75.0266 8.86484 76.5485 7.44123 76.5485 5.82639C76.5485 3.46788 74.4359 2.00178 71.3817 2.00178H64.797V17.3321H71.5378ZM67.8095 4.13719H70.6795C72.4183 4.13719 73.5694 4.93398 73.5694 6.30447C73.5694 7.70683 72.3515 8.46113 70.3116 8.46113H67.8095V4.13719ZM67.8095 15.1967V10.4053H70.7686C72.9645 10.4053 74.2605 11.2233 74.2605 12.7851C74.2605 14.3574 72.998 15.1967 70.8801 15.1967H67.8095Z" fill="black"/>
<path d="M79.1324 17.3321H81.8968V10.5859C81.8968 8.94983 83.0085 8.01772 84.8031 8.01772C85.2713 8.01772 86.0069 8.09209 86.2187 8.16646L86.7655 5.63516C86.5091 5.57142 85.4719 5.52892 85.0706 5.52892C83.499 5.52892 82.1837 6.37884 81.8493 7.52622H81.7965V5.58987H79.1324V17.3321Z" fill="black"/>
<path d="M92.5286 17.5658C96.1735 17.5658 98.5284 15.2923 98.5284 11.5208C98.5284 7.77057 96.1624 5.49705 92.5286 5.49705C88.9059 5.49705 86.5288 7.7812 86.5288 11.5208C86.5288 15.2923 88.8725 17.5658 92.5286 17.5658ZM92.5286 15.2789C90.6002 15.2789 89.36 13.9856 89.36 11.5314C89.36 9.07732 90.6002 7.784 92.5286 7.784C94.4458 7.784 95.686 9.07732 95.686 11.5314C95.686 13.9856 94.4569 15.2789 92.5286 15.2789Z" fill="black"/>
<path d="M103.331 10.4797H103.278V1.09595H100.513V17.3321H103.278V13.2525L104.122 12.4479L107.898 17.3321H111.515L106.321 10.7028L111.181 5.72015H107.97L103.331 10.4797Z" fill="black"/>
<path d="M119.873 13.895C119.472 14.7661 118.524 15.5154 117.153 15.5154C115.336 15.5154 114.303 14.283 114.236 12.3176L114.099 12.1795H122.752V11.3402C122.752 7.69621 120.531 5.49705 117.053 5.49705C113.519 5.49705 111.187 7.84494 111.187 11.5739C111.187 15.2923 113.486 17.5658 117.075 17.5658C119.951 17.5658 122.128 16.1182 122.629 14.0253L119.873 13.895ZM117.042 7.54747C118.703 7.54747 119.795 8.66298 119.851 10.4266H114.247C114.369 8.68423 115.392 7.54747 117.042 7.54747Z" fill="black"/>
<path d="M124.614 17.3321H127.378V10.5859C127.378 8.94983 128.49 8.01772 130.285 8.01772C130.753 8.01772 131.489 8.09209 131.7 8.16646L132.247 5.63516C131.991 5.57142 130.954 5.52892 130.552 5.52892C128.981 5.52892 127.665 6.37884 127.331 7.52622H127.278V5.58987H124.614V17.3321Z" fill="black"/>
<path d="M135.983 2.07498V0.582937H136.671V0.152344H134.768V0.582937H135.456V2.07498H135.983Z" fill="black"/>
<path d="M139.021 2.07498V0.159223H138.426L138.009 1.25256H137.984L137.56 0.159223H136.99V2.07498H137.477V0.88502H137.502L137.85 1.90676H138.161L138.509 0.88502H138.534V2.07498H139.021Z" fill="black"/>
</svg>
